<svg width="243" height="87" viewBox="0 0 243 87" fill="none" xmlns="http://www.w3.org/2000/svg">
<rect x="0.55957" y="0.40332" width="242.341" height="86.2446" rx="15" fill="#002A3C"/>
<path d="M160.017 35.8994C160.017 34.9866 159.271 34.2467 158.355 34.2467C157.437 34.2467 156.691 34.9866 156.691 35.8994V39.376C156.691 40.2938 157.437 41.034 158.355 41.034C159.271 41.034 160.017 40.2938 160.017 39.376V35.8994ZM150.875 31.3365C150.875 30.424 150.131 29.6827 149.192 29.6827C148.274 29.6827 147.531 30.424 147.531 31.3365V39.376C147.531 40.2938 148.274 41.034 149.192 41.034C150.131 41.034 150.875 40.2938 150.875 39.376V31.3365ZM141.715 25.0939C141.715 24.1811 140.971 23.4409 140.053 23.4409C139.135 23.4409 138.391 24.1811 138.391 25.0939V42.6797C138.391 43.5978 139.135 44.3377 140.053 44.3377C140.971 44.3377 141.715 43.5978 141.715 42.6797V25.0939ZM132.552 31.3365C132.552 30.424 131.809 29.6827 130.89 29.6827C129.974 29.6827 129.228 30.424 129.228 31.3365V39.376C129.228 40.2938 129.974 41.034 130.89 41.034C131.809 41.034 132.552 40.2938 132.552 39.376V31.3365ZM123.392 35.8994C123.392 34.9866 122.648 34.2467 121.735 34.2467C120.817 34.2467 120.068 34.9866 120.068 35.8994V39.376C120.068 40.2938 120.817 41.034 121.735 41.034C122.648 41.034 123.392 40.2938 123.392 39.376V35.8994ZM114.246 31.3365C114.246 30.424 113.497 29.6827 112.579 29.6827C111.661 29.6827 110.912 30.424 110.912 31.3365V39.376C110.912 40.2938 111.661 41.034 112.579 41.034C113.497 41.034 114.246 40.2938 114.246 39.376V31.3365ZM105.09 25.0939C105.09 24.1811 104.341 23.4409 103.423 23.4409C102.505 23.4409 101.756 24.1811 101.756 25.0939V42.6797C101.756 43.5978 102.505 44.3377 103.423 44.3377C104.341 44.3377 105.09 43.5978 105.09 42.6797V25.0939ZM95.9333 31.3365C95.9333 30.424 95.1846 29.6827 94.2664 29.6827C93.3482 29.6827 92.5995 30.424 92.5995 31.3365V39.376C92.5995 40.2938 93.3482 41.034 94.2664 41.034C95.1846 41.034 95.9333 40.2938 95.9333 39.376V31.3365ZM86.7771 35.8994C86.7771 34.9866 86.0284 34.2467 85.1102 34.2467C84.1931 34.2467 83.4434 34.9866 83.4434 35.8994V39.376C83.4434 40.2938 84.1931 41.034 85.1102 41.034C86.0284 41.034 86.7771 40.2938 86.7771 39.376V35.8994ZM121.191 50.3149C121.091 50.2877 119.553 49.8929 117.918 49.8929C114.823 49.8929 112.96 51.5562 112.96 54.0332C112.96 56.2257 114.519 57.3192 116.39 57.9074C116.597 57.9755 116.903 58.0708 117.106 58.1378C117.939 58.3985 118.604 58.786 118.604 59.4571C118.604 60.2076 117.835 60.6934 116.165 60.6934C114.698 60.6934 113.291 60.2757 112.994 60.2012V63.2487C113.159 63.2837 114.832 63.6104 116.618 63.6104C119.187 63.6104 122.127 62.493 122.127 59.1663C122.127 57.5528 121.134 56.0673 118.955 55.3778L118.029 55.0843C117.476 54.9107 116.489 54.6295 116.489 53.8232C116.489 53.1863 117.22 52.7379 118.566 52.7379C119.728 52.7379 121.141 53.1264 121.191 53.1419V50.3149ZM149.566 56.7518C149.566 58.6787 148.083 60.2376 146.093 60.2376C144.101 60.2376 142.622 58.6787 142.622 56.7518C142.622 54.8288 144.101 53.2693 146.093 53.2693C148.083 53.2693 149.566 54.8288 149.566 56.7518ZM146.093 49.8971C142.001 49.8971 139.066 52.9693 139.066 56.7518C139.066 60.5403 142.001 63.6104 146.093 63.6104C150.185 63.6104 153.125 60.5403 153.125 56.7518C153.125 52.9693 150.185 49.8971 146.093 49.8971ZM100.484 50.3717C100.169 50.2785 99.0026 49.8971 97.4229 49.8971C93.3369 49.8971 90.3374 52.7968 90.3374 56.7518C90.3374 61.0188 93.6485 63.6104 97.4229 63.6104C98.9225 63.6104 100.067 63.2569 100.484 63.139V59.5841C100.34 59.6638 99.2426 60.287 97.6636 60.287C95.4267 60.287 93.9839 58.72 93.9839 56.7518C93.9839 54.7237 95.4891 53.2195 97.6636 53.2195C99.2696 53.2195 100.349 53.8564 100.484 53.9266V50.3717ZM135.531 50.3717C135.213 50.2785 134.045 49.8971 132.471 49.8971C128.379 49.8971 125.38 52.7968 125.38 56.7518C125.38 61.0188 128.695 63.6104 132.471 63.6104C133.963 63.6104 135.109 63.2569 135.531 63.139V59.5841C135.383 59.6638 134.284 60.287 132.706 60.287C130.471 60.287 129.029 58.72 129.029 56.7518C129.029 54.7237 130.535 53.2195 132.706 53.2195C134.311 53.2195 135.394 53.8564 135.531 53.9266V50.3717ZM108.458 63.3747H105.1V50.1318H108.458V63.3747Z" fill="#F5F5F5"/>
</svg>
