<svg width="69" height="69" viewBox="0 0 69 69" fill="none" xmlns="http://www.w3.org/2000/svg">
<path d="M34.4996 0.429199C15.7216 0.429199 0.5 15.6508 0.5 34.4288C0.5 53.2068 15.7216 68.4292 34.4996 68.4292C53.2776 68.4292 68.5 53.2068 68.5 34.4288C68.5 15.6508 53.2776 0.429199 34.4996 0.429199Z" fill="#04293A"/>
<path d="M35.0005 46.0962C28.568 46.0962 23.334 40.8622 23.334 34.4297C23.334 27.9961 28.568 22.7632 35.0005 22.7632C41.4318 22.7632 46.667 27.9961 46.667 34.4297C46.667 40.8622 41.4318 46.0962 35.0005 46.0962ZM35.0005 24.43C29.4847 24.43 24.9997 28.9139 24.9997 34.4297C24.9997 39.9444 29.4847 44.4294 35.0005 44.4294C40.5152 44.4294 45.0002 39.9444 45.0002 34.4297C45.0002 28.9139 40.5152 24.43 35.0005 24.43Z" fill="#FEFEFE"/>
<path d="M35.0003 39.4292C34.5397 39.4292 34.1663 39.0558 34.1663 38.5963V32.7631C34.1663 31.8441 33.4195 31.0962 32.4995 31.0962C31.5794 31.0962 30.8327 31.8441 30.8327 32.7631V38.5963C30.8327 39.0558 30.4604 39.4292 29.9998 39.4292C29.5404 39.4292 29.167 39.0558 29.167 38.5963V32.7631C29.167 30.9241 30.6616 29.4294 32.4995 29.4294C34.3384 29.4294 35.8331 30.9241 35.8331 32.7631V38.5963C35.8331 39.0558 35.4597 39.4292 35.0003 39.4292Z" fill="#FEFEFE"/>
<path d="M35.0003 36.0965H29.9998C29.5404 36.0965 29.167 35.7231 29.167 35.2625C29.167 34.8031 29.5404 34.4297 29.9998 34.4297H35.0003C35.4597 34.4297 35.8331 34.8031 35.8331 35.2625C35.8331 35.7231 35.4597 36.0965 35.0003 36.0965Z" fill="#FEFEFE"/>
<path d="M39.9998 39.4292C39.5404 39.4292 39.167 39.0558 39.167 38.5963V30.2634C39.167 29.8028 39.5404 29.4294 39.9998 29.4294C40.4604 29.4294 40.8338 29.8028 40.8338 30.2634V38.5963C40.8338 39.0558 40.4604 39.4292 39.9998 39.4292Z" fill="#FEFEFE"/>
<path d="M35.0008 19.4296C33.6224 19.4296 32.5 18.3084 32.5 16.93C32.5 15.5516 33.6224 14.4292 35.0008 14.4292C36.3792 14.4292 37.5004 15.5516 37.5004 16.93C37.5004 18.3084 36.3792 19.4296 35.0008 19.4296ZM35.0008 16.096C34.5424 16.096 34.1668 16.4694 34.1668 16.93C34.1668 17.3894 34.5424 17.7628 35.0008 17.7628C35.4591 17.7628 35.8336 17.3894 35.8336 16.93C35.8336 16.4694 35.4591 16.096 35.0008 16.096Z" fill="#FEFEFE"/>
<path d="M35.0008 54.4291C33.6224 54.4291 32.5 53.3079 32.5 51.9295C32.5 50.5511 33.6224 49.4287 35.0008 49.4287C36.3792 49.4287 37.5004 50.5511 37.5004 51.9295C37.5004 53.3079 36.3792 54.4291 35.0008 54.4291ZM35.0008 51.0955C34.5424 51.0955 34.1668 51.4689 34.1668 51.9295C34.1668 52.3889 34.5424 52.7623 35.0008 52.7623C35.4591 52.7623 35.8336 52.3889 35.8336 51.9295C35.8336 51.4689 35.4591 51.0955 35.0008 51.0955Z" fill="#FEFEFE"/>
<path d="M52.5008 36.9294C51.1224 36.9294 50 35.8081 50 34.4297C50 33.0513 51.1224 31.929 52.5008 31.929C53.8792 31.929 55.0004 33.0513 55.0004 34.4297C55.0004 35.8081 53.8792 36.9294 52.5008 36.9294ZM52.5008 33.5958C52.0424 33.5958 51.6668 33.9691 51.6668 34.4297C51.6668 34.8892 52.0424 35.2626 52.5008 35.2626C52.9591 35.2626 53.3336 34.8892 53.3336 34.4297C53.3336 33.9691 52.9591 33.5958 52.5008 33.5958Z" fill="#FEFEFE"/>
<path d="M47.3746 24.5531C46.7352 24.5531 46.0946 24.3094 45.6061 23.8231C44.6313 22.8483 44.6313 21.2609 45.6061 20.286C46.5798 19.3112 48.1684 19.3112 49.1421 20.286C50.1169 21.2609 50.1169 22.8483 49.1421 23.8231C48.6547 24.3094 48.0152 24.5531 47.3746 24.5531ZM47.3746 21.2229C47.1611 21.2229 46.9487 21.3033 46.7844 21.4666C46.4602 21.7908 46.4602 22.3195 46.7844 22.646C47.1097 22.9701 47.6385 22.9713 47.9627 22.646C48.288 22.3218 48.288 21.793 47.9627 21.4677C47.8017 21.3033 47.5882 21.2229 47.3746 21.2229Z" fill="#FEFEFE"/>
<path d="M47.3746 49.3025C46.7352 49.3025 46.0935 49.0588 45.6061 48.5725C44.6313 47.5977 44.6313 46.0114 45.6061 45.0354C46.5798 44.0628 48.165 44.0639 49.1421 45.0354C50.1169 46.0114 50.1169 47.5977 49.1421 48.5725C48.6547 49.0588 48.0152 49.3025 47.3746 49.3025ZM47.3746 45.9711C47.1611 45.9711 46.9487 46.0527 46.7844 46.2148C46.4602 46.539 46.4602 47.0678 46.7844 47.3931C47.1097 47.7173 47.6385 47.7173 47.9627 47.3931C48.288 47.0678 48.288 46.539 47.9627 46.2126C47.8017 46.0527 47.5882 45.9711 47.3746 45.9711Z" fill="#FEFEFE"/>
<path d="M47.2305 23.9182L48.7698 23.2776L52.6356 32.5786L51.0973 33.2181L47.2305 23.9182Z" fill="#FEFEFE"/>
<path d="M47.2305 44.9426L51.094 35.6416L52.6333 36.281L48.7698 45.5821L47.2305 44.9426Z" fill="#FEFEFE"/>
<path d="M17.5008 36.9294C16.1224 36.9294 15 35.8081 15 34.4297C15 33.0513 16.1224 31.929 17.5008 31.929C18.8792 31.929 20.0004 33.0513 20.0004 34.4297C20.0004 35.8081 18.8792 36.9294 17.5008 36.9294ZM17.5008 33.5958C17.0424 33.5958 16.6668 33.9691 16.6668 34.4297C16.6668 34.8892 17.0424 35.2626 17.5008 35.2626C17.9591 35.2626 18.3336 34.8892 18.3336 34.4297C18.3336 33.9691 17.9591 33.5958 17.5008 33.5958Z" fill="#FEFEFE"/>
<path d="M22.6256 49.3025C21.9851 49.3025 21.3445 49.0588 20.8571 48.5725C19.8823 47.5977 19.8823 46.0114 20.8571 45.0354C21.8308 44.0628 23.416 44.0639 24.3919 45.0354C25.3667 46.0114 25.3667 47.5977 24.3919 48.5725C23.9068 49.0588 23.2651 49.3025 22.6256 49.3025ZM22.6256 45.9711C22.4121 45.9711 22.1986 46.0527 22.0354 46.2148C21.7112 46.539 21.7112 47.0678 22.0354 47.3931C22.3607 47.7173 22.8895 47.7173 23.2136 47.3931C23.539 47.0678 23.539 46.539 23.2136 46.2126C23.0527 46.0527 22.8391 45.9711 22.6256 45.9711Z" fill="#FEFEFE"/>
<path d="M22.6256 24.5531C21.9851 24.5531 21.3456 24.3094 20.8571 23.8231C19.8845 22.8483 19.8845 21.2631 20.8593 20.2882C21.8319 19.3134 23.4205 19.3134 24.3942 20.2882C25.369 21.2631 25.369 22.8494 24.3942 23.8242C23.9067 24.3094 23.2651 24.5531 22.6256 24.5531ZM22.0376 22.6448C22.3618 22.9679 22.8906 22.9701 23.2159 22.6448C23.5401 22.3195 23.5401 21.7907 23.2159 21.4665C22.8906 21.1412 22.3618 21.1412 22.0376 21.4665C21.7112 21.7907 21.7112 22.3195 22.0376 22.6448Z" fill="#FEFEFE"/>
<path d="M17.3652 32.5774L21.2287 23.2764L22.7681 23.9158L18.9046 33.2168L17.3652 32.5774Z" fill="#FEFEFE"/>
<path d="M17.3633 36.2832L18.9026 35.6438L22.7684 44.9437L21.229 45.5831L17.3633 36.2832Z" fill="#FEFEFE"/>
<path d="M23.8477 20.6636L33.1442 16.79L33.7859 18.3305L24.4893 22.2041L23.8477 20.6636Z" fill="#FEFEFE"/>
<path d="M36.2109 18.3305L36.8515 16.79L46.1514 20.6569L45.5108 22.1974L36.2109 18.3305Z" fill="#FEFEFE"/>
<path d="M36.2139 50.5277L45.5104 46.6553L46.1521 48.1958L36.8555 52.0682L36.2139 50.5277Z" fill="#FEFEFE"/>
<path d="M23.8486 48.198L24.4881 46.6575L33.788 50.5232L33.1485 52.0637L23.8486 48.198Z" fill="#FEFEFE"/>
</svg>
