<svg width="21" height="16" viewBox="0 0 21 16" fill="none" xmlns="http://www.w3.org/2000/svg">
<g clip-path="url(#clip0_526_2071)">
<path d="M17.7849 1.33443C16.4085 0.702852 14.9523 0.254086 13.4549 0C13.2684 0.330693 13.0505 0.775477 12.9002 1.12933C11.2858 0.891256 9.68613 0.891256 8.10134 1.12933C7.95114 0.775558 7.7283 0.330693 7.54006 0C6.04119 0.254203 4.58378 0.704112 3.2067 1.33773C0.466397 5.39875 -0.276477 9.35879 0.094919 13.2628C1.91247 14.5938 3.67385 15.4025 5.40556 15.9316C5.83593 15.3512 6.21637 14.7367 6.54295 14.0945C5.92119 13.8623 5.32179 13.5763 4.75188 13.2396C4.90186 13.1306 5.04831 13.017 5.191 12.899C8.64441 14.4831 12.3967 14.4831 15.809 12.899C15.9523 13.0162 16.0987 13.1298 16.248 13.2396C15.6772 13.5771 15.0767 13.8638 14.4537 14.0962C14.7821 14.741 15.1619 15.3561 15.5911 15.9332C17.3244 15.4041 19.0875 14.5955 20.905 13.2628C21.3408 8.73713 20.1606 4.81335 17.7849 1.33435V1.33443ZM7.01347 10.8619C5.97676 10.8619 5.12656 9.91276 5.12656 8.75698C5.12656 7.60121 5.95864 6.65045 7.01347 6.65045C8.06838 6.65045 8.91849 7.59952 8.90037 8.75698C8.90201 9.91276 8.06838 10.8619 7.01347 10.8619ZM13.9865 10.8619C12.9497 10.8619 12.0996 9.91276 12.0996 8.75698C12.0996 7.60121 12.9316 6.65045 13.9865 6.65045C15.0414 6.65045 15.8915 7.59952 15.8734 8.75698C15.8734 9.91276 15.0414 10.8619 13.9865 10.8619Z" fill="#5865F2"/>
</g>
<defs>
<clipPath id="clip0_526_2071">
<rect width="21" height="16" fill="white"/>
</clipPath>
</defs>
</svg>
