<svg width="69" height="69" viewBox="0 0 69 69" fill="none" xmlns="http://www.w3.org/2000/svg">
<path d="M34.4996 0.429199C15.7216 0.429199 0.5 15.6508 0.5 34.4288C0.5 53.2068 15.7216 68.4292 34.4996 68.4292C53.2776 68.4292 68.5 53.2068 68.5 34.4288C68.5 15.6508 53.2776 0.429199 34.4996 0.429199Z" fill="#04293A"/>
<path d="M20.7159 44.3606C21.7345 45.9627 23.7265 46.8053 26.4211 46.8053C27.0825 46.8028 27.7423 46.7575 28.398 46.6695C28.6067 46.6418 28.818 46.61 29.0309 46.5748C29.1156 46.7743 29.2028 46.9705 29.2925 47.1625C30.8813 50.5588 33.0376 52.4292 35.3658 52.4292C37.6931 52.4292 39.8503 50.5588 41.4382 47.1625C41.5279 46.9705 41.6159 46.7743 41.7006 46.5748C41.9135 46.61 42.124 46.6418 42.3336 46.6695C42.9892 46.7575 43.649 46.8028 44.3096 46.8053C47.005 46.8053 48.997 45.9627 50.0157 44.3606C51.2699 42.387 50.8658 39.5508 48.8788 36.3742C48.577 35.8921 48.2442 35.41 47.8812 34.9296C48.2433 34.4492 48.5762 33.968 48.8788 33.4842C50.8658 30.3076 51.2699 27.4714 50.0157 25.4986C48.7606 23.5251 46.0325 22.706 42.3336 23.1897C42.124 23.2166 41.9135 23.2484 41.7006 23.2836C41.6159 23.0849 41.5279 22.8888 41.4382 22.6968C39.8503 19.3005 37.6931 17.4292 35.3658 17.4292C33.0376 17.4292 30.8813 19.3005 29.2925 22.6968C29.2028 22.8888 29.1156 23.0841 29.0309 23.2836C28.818 23.2484 28.6067 23.2174 28.398 23.1897C24.6982 22.706 21.9701 23.5259 20.7159 25.4986C19.4616 27.4714 19.8649 30.3076 21.8519 33.4842C22.1537 33.9672 22.4865 34.4484 22.8495 34.9296C22.4874 35.4092 22.1545 35.8912 21.8519 36.3742C19.8649 39.5508 19.4616 42.387 20.7159 44.3606ZM28.3326 40.3456C29.1215 40.9517 29.9473 41.5336 30.8125 42.0911C31.8949 42.7886 33.0141 43.4283 34.1644 44.0051C32.7073 44.6247 31.1965 45.1034 29.6497 45.4362C29.0687 43.9062 28.6252 42.1858 28.3326 40.3447V40.3456ZM28.1381 38.9111C27.8421 36.2652 27.8421 33.5941 28.1381 30.949C29.1642 30.1106 30.2374 29.3317 31.3507 28.6149C32.6385 27.7841 33.9799 27.0396 35.3658 26.3873C36.7516 27.0396 38.0922 27.7841 39.3799 28.6149C40.4942 29.3309 41.5673 30.1098 42.5935 30.9481C42.7419 32.2703 42.8165 33.5991 42.8148 34.9296C42.8165 36.2593 42.7419 37.589 42.5935 38.9111C41.5673 39.7486 40.4942 40.5275 39.3799 41.2435C38.0922 42.0752 36.7516 42.8188 35.3658 43.4719C33.9799 42.8188 32.6393 42.0752 31.3507 41.2435C30.2374 40.5275 29.1642 39.7486 28.1381 38.9103V38.9111ZM40.5344 46.7341C39.12 49.7589 37.2848 51.424 35.3658 51.424C33.4467 51.424 31.6115 49.7589 30.1971 46.7341C30.1426 46.6184 30.0898 46.5002 30.037 46.3819C31.7498 46.008 33.5515 45.3968 35.3658 44.5769C37.18 45.3968 38.9809 46.008 40.6937 46.3819C40.6417 46.5002 40.5889 46.6184 40.5344 46.7341ZM41.081 45.4362C39.535 45.1034 38.0234 44.6247 36.5663 44.0051C37.7174 43.4283 38.8358 42.7886 39.919 42.0911C40.7817 41.5352 41.6084 40.9534 42.3981 40.3456C42.1055 42.1858 41.662 43.9062 41.081 45.4362ZM48.0329 36.9099C49.8027 39.7386 50.2077 42.1917 49.1739 43.819C48.1394 45.4446 45.7567 46.1036 42.4627 45.6727C42.3361 45.6559 42.2087 45.6375 42.0804 45.6182C42.7628 43.7712 43.255 41.6727 43.5367 39.4309C44.8781 38.3159 46.1164 37.0809 47.2373 35.742C47.5232 36.131 47.7889 36.52 48.0329 36.9099ZM43.6892 31.8871C44.7406 32.8228 45.7164 33.8397 46.6093 34.9296C45.7164 36.0195 44.7406 37.0365 43.6892 37.9721C43.7722 36.977 43.8142 35.96 43.8142 34.9296C43.8142 33.8984 43.7722 32.8814 43.6892 31.8863V31.8871ZM42.4627 24.1866C45.7567 23.7556 48.1402 24.4138 49.1739 26.0402C50.2077 27.6667 49.8027 30.1207 48.0329 32.9494C47.7898 33.3384 47.524 33.7282 47.2381 34.1164C46.1172 32.7775 44.8781 31.5434 43.5367 30.4283C43.2558 28.1865 42.7628 26.088 42.0812 24.2411C42.2087 24.2218 42.3361 24.2033 42.4627 24.1866ZM42.3981 29.5137C41.61 28.9075 40.7834 28.3257 39.9182 27.7681C38.8358 27.0706 37.7166 26.4309 36.5663 25.8541C38.0234 25.2354 39.5342 24.7558 41.081 24.423C41.662 25.9522 42.1055 27.6726 42.3981 29.5137ZM30.1971 23.1252C31.6115 20.1003 33.4467 18.4353 35.3658 18.4353C37.2848 18.4353 39.12 20.1003 40.5344 23.1252C40.5889 23.2409 40.6417 23.3582 40.6937 23.4773C38.9809 23.8504 37.18 24.4624 35.3658 25.2815C33.5515 24.4624 31.7507 23.8504 30.037 23.4773C30.0898 23.3582 30.1426 23.2409 30.1971 23.1252ZM29.6497 24.423C31.1965 24.7558 32.7073 25.2346 34.1644 25.8541C33.0141 26.4309 31.8949 27.0706 30.8125 27.7681C29.9498 28.3232 29.1232 28.905 28.3326 29.5137C28.6252 27.6726 29.0687 25.9522 29.6497 24.423ZM22.6978 32.9494C20.9288 30.1207 20.523 27.6667 21.5576 26.0402C22.3851 24.7391 24.0753 24.0583 26.4051 24.0583C27.028 24.0608 27.651 24.1036 28.2688 24.1866C28.3954 24.2033 28.5229 24.2218 28.6503 24.2411C27.9679 26.088 27.4757 28.1865 27.194 30.4283C25.8535 31.5434 24.6143 32.7775 23.4934 34.1164C23.2075 33.7282 22.9426 33.3392 22.6978 32.9494ZM27.0415 37.9721C25.991 37.0365 25.0142 36.0195 24.1222 34.9296C25.0142 33.8397 25.991 32.8219 27.0415 31.8863C26.9593 32.8814 26.9165 33.8984 26.9165 34.9296C26.9165 35.96 26.9593 36.977 27.0415 37.9721ZM23.4926 35.742C24.6143 37.0809 25.8526 38.315 27.194 39.4301C27.4757 41.6719 27.9679 43.7712 28.6503 45.6173C28.5229 45.6375 28.3954 45.6559 28.2688 45.6727C27.651 45.7557 27.028 45.7984 26.4051 45.8009C24.0753 45.8009 22.3842 45.1193 21.5576 43.8182C20.523 42.1917 20.928 39.7386 22.6978 36.9099C22.9418 36.52 23.2067 36.131 23.4926 35.742Z" fill="#FEFFFE"/>
<path d="M32.7607 31.7841C33.4403 31.9823 34.3479 32.0919 35.2983 32.0919C36.2488 32.0919 37.1454 31.9823 37.8249 31.7841C38.5072 31.5852 38.6906 31.3738 38.6988 31.3318C38.6906 31.2937 38.5054 31.0816 37.8231 30.8826C37.1436 30.6845 36.2433 30.5757 35.2938 30.5757C34.3433 30.5757 33.4403 30.6845 32.7607 30.8826C32.0803 31.0816 31.876 31.2922 31.876 31.3349V31.3357C31.876 31.3746 32.0803 31.5859 32.7607 31.7841Z" fill="#FEFFFE"/>
<path d="M32.7593 39.3122C33.4378 39.5451 34.3457 39.6725 35.2956 39.6725C35.8811 39.6762 36.4667 39.6234 37.0422 39.5151C38.2443 39.283 38.6988 38.8972 38.6988 38.7825V37.3984C38.5439 37.4603 38.4219 37.5204 38.2653 37.5777C37.4639 37.8689 36.402 38.03 35.2883 38.03C34.1745 38.03 33.1145 37.8689 32.3131 37.5777C32.1556 37.5204 32.0308 37.4603 31.876 37.3984V38.7853C31.876 38.8317 32.0781 39.0792 32.7593 39.3122Z" fill="#FEFFFE"/>
<path d="M32.7601 34.003C33.4385 34.2369 34.3463 34.3663 35.296 34.3663C36.2457 34.3663 37.1444 34.2369 37.8219 34.003C38.5021 33.7682 38.6988 33.5195 38.6988 33.47V32.092C38.544 32.1544 38.422 32.215 38.2644 32.2728C37.4631 32.5673 36.4014 32.7287 35.2878 32.7287C34.1742 32.7287 33.1152 32.5673 32.313 32.2728C32.1564 32.215 32.0317 32.1553 31.876 32.092V33.4718C31.8769 33.5186 32.079 33.7682 32.7601 34.003Z" fill="#FEFFFE"/>
<path d="M32.7593 36.3984C33.4378 36.555 34.3457 36.6407 35.2956 36.6407C36.2454 36.6407 37.1442 36.555 37.8218 36.3984C38.5021 36.2424 38.6988 36.0766 38.6988 36.0429V35.1245C38.5439 35.1661 38.4228 35.2065 38.2653 35.245C37.4639 35.4408 36.402 35.5491 35.2883 35.5491C34.1745 35.5491 33.1145 35.4408 32.3131 35.245C32.1556 35.2065 32.0308 35.1661 31.876 35.1245V36.0441C31.876 36.0753 32.0781 36.2418 32.7593 36.3984Z" fill="#FEFFFE"/>
</svg>
