<svg width="54" height="54" viewBox="0 0 54 54" fill="none" xmlns="http://www.w3.org/2000/svg">
<path d="M43.375 25.625V21.875H39.625V18.125C39.622 17.1314 39.226 16.1792 38.5234 15.4766C37.8208 14.774 36.8686 14.378 35.875 14.375H32.125V10.625H28.375V14.375H24.625V10.625H20.875V14.375H17.125C16.1314 14.378 15.1792 14.774 14.4766 15.4766C13.774 16.1792 13.378 17.1314 13.375 18.125V21.875H9.625V25.625H13.375V29.375H9.625V33.125H13.375V36.875C13.378 37.8686 13.774 38.8208 14.4766 39.5234C15.1792 40.226 16.1314 40.622 17.125 40.625H20.875V44.375H24.625V40.625H28.375V44.375H32.125V40.625H35.875C36.8686 40.622 37.8208 40.226 38.5234 39.5234C39.226 38.8208 39.622 37.8686 39.625 36.875V33.125H43.375V29.375H39.625V25.625H43.375ZM35.875 36.875H17.125V18.125H35.875V36.875Z" fill="#0FA958"/>
<path d="M25.3023 20H22.7805L19.0117 35H20.9373L21.8073 31.4844H26.1498L26.9973 35H28.9886L25.3023 20ZM22.0605 29.9825L23.9692 21.7812H24.0555L25.8986 29.9825H22.0605ZM30.708 20H32.583V35H30.708V20Z" fill="#0FA958"/>
</svg>
