<svg width="54" height="54" viewBox="0 0 54 54" fill="none" xmlns="http://www.w3.org/2000/svg">
<path d="M21.9091 25.7273C23.5968 25.7273 25.2154 25.0568 26.4089 23.8634C27.6023 22.67 28.2727 21.0514 28.2727 19.3636C28.2727 17.6759 27.6023 16.0573 26.4089 14.8639C25.2154 13.6705 23.5968 13 21.9091 13C20.2213 13 18.6027 13.6705 17.4093 14.8639C16.2159 16.0573 15.5455 17.6759 15.5455 19.3636C15.5455 21.0514 16.2159 22.67 17.4093 23.8634C18.6027 25.0568 20.2213 25.7273 21.9091 25.7273ZM21.9091 25.7273C24.4711 25.7273 26.7098 26.6945 28.302 28.302C29.2462 29.2589 29.9524 30.4242 30.3638 31.704M21.9091 25.7273C16.8182 25.7273 13 29.5455 13 34.6364V41H25.7273M27 35.6851L32.3327 39.7273L41 28.2727" stroke="#0FA958" stroke-width="3"/>
</svg>
