<svg width="54" height="54" viewBox="0 0 54 54" fill="none" xmlns="http://www.w3.org/2000/svg">
<path d="M42.125 13.25C42.4897 13.25 42.8394 13.3949 43.0973 13.6527C43.3551 13.9106 43.5 14.2603 43.5 14.625V35.25H10.5V14.625C10.5 14.2603 10.6449 13.9106 10.9027 13.6527C11.1606 13.3949 11.5103 13.25 11.875 13.25H42.125ZM11.875 10.5C10.781 10.5 9.73177 10.9346 8.95818 11.7082C8.1846 12.4818 7.75 13.531 7.75 14.625V38H46.25V14.625C46.25 13.531 45.8154 12.4818 45.0418 11.7082C44.2682 10.9346 43.219 10.5 42.125 10.5H11.875ZM5 39.375H49C49 40.469 48.5654 41.5182 47.7918 42.2918C47.0182 43.0654 45.969 43.5 44.875 43.5H9.125C8.03098 43.5 6.98177 43.0654 6.20818 42.2918C5.4346 41.5182 5 40.469 5 39.375V39.375Z" fill="#0FA958"/>
<path d="M27.0003 19.1667C23.792 19.1667 21.167 21.7917 21.167 25.0001C21.167 28.2084 23.792 30.8334 27.0003 30.8334C30.2087 30.8334 32.8337 28.2084 32.8337 25.0001C32.8337 21.7917 30.2087 19.1667 27.0003 19.1667ZM25.8337 27.9167L22.917 25.0001L23.7395 24.1776L25.8337 26.2659L30.2612 21.8384L31.0837 22.6667L25.8337 27.9167Z" fill="#0FA958"/>
</svg>
