<svg width="54" height="54" viewBox="0 0 54 54" fill="none" xmlns="http://www.w3.org/2000/svg">
<path d="M33.5 33.988C34.6935 33.988 35.8381 34.4619 36.682 35.3055C37.5259 36.149 38 37.2931 38 38.4861V41.4888L37.984 41.7047C37.364 45.9569 33.544 48 27.134 48C20.748 48 16.866 45.9809 16.028 41.7787L16 41.4848V38.4861C16 37.2931 16.4741 36.149 17.318 35.3055C18.1619 34.4619 19.3065 33.988 20.5 33.988H33.5ZM33.5 36.9867H20.5C20.1022 36.9867 19.7206 37.1447 19.4393 37.4259C19.158 37.7071 19 38.0884 19 38.4861V41.3249C19.56 43.7238 22.1 45.0013 27.134 45.0013C32.166 45.0013 34.594 43.7398 35 41.3708V38.4861C35 38.0884 34.842 37.7071 34.5607 37.4259C34.2794 37.1447 33.8978 36.9867 33.5 36.9867ZM35.488 21.9911L46.5 21.9931C47.6935 21.9931 48.8381 22.467 49.682 23.3106C50.5259 24.1542 51 25.2983 51 26.4912V29.4939L50.984 29.7098C50.364 33.962 46.544 36.0051 40.134 36.0051L39.504 35.9991C38.9134 34.5761 37.8369 33.4086 36.466 32.7046C37.496 32.9045 38.716 33.0064 40.134 33.0064C45.166 33.0064 47.594 31.745 48 29.376V26.4912C48 26.0936 47.842 25.7122 47.5607 25.431C47.2794 25.1498 46.8978 24.9919 46.5 24.9919H36C36 23.9403 35.82 22.9287 35.488 21.9911ZM7.5 21.9931L18.512 21.9911C18.2296 22.7898 18.0619 23.6244 18.014 24.4701L18 24.9919H7.5C7.10218 24.9919 6.72064 25.1498 6.43934 25.431C6.15804 25.7122 6 26.0936 6 26.4912V29.33C6.56 31.729 9.1 33.0064 14.134 33.0064C15.378 33.0064 16.462 32.9285 17.398 32.7765C16.0889 33.4876 15.0632 34.6257 14.492 36.0011L14.132 36.0051C7.748 36.0051 3.866 33.986 3.028 29.7838L3 29.4899V26.4912C3 25.2983 3.47411 24.1542 4.31802 23.3106C5.16193 22.467 6.30653 21.9931 7.5 21.9931ZM27 17.9949C28.8565 17.9949 30.637 18.732 31.9497 20.0442C33.2625 21.3564 34 23.1361 34 24.9919C34 26.8476 33.2625 28.6273 31.9497 29.9395C30.637 31.2517 28.8565 31.9889 27 31.9889C25.1435 31.9889 23.363 31.2517 22.0503 29.9395C20.7375 28.6273 20 26.8476 20 24.9919C20 23.1361 20.7375 21.3564 22.0503 20.0442C23.363 18.732 25.1435 17.9949 27 17.9949ZM27 20.9936C25.9391 20.9936 24.9217 21.4148 24.1716 22.1646C23.4214 22.9145 23 23.9314 23 24.9919C23 26.0523 23.4214 27.0693 24.1716 27.8191C24.9217 28.5689 25.9391 28.9901 27 28.9901C28.0609 28.9901 29.0783 28.5689 29.8284 27.8191C30.5786 27.0693 31 26.0523 31 24.9919C31 23.9314 30.5786 22.9145 29.8284 22.1646C29.0783 21.4148 28.0609 20.9936 27 20.9936ZM40 6C41.8565 6 43.637 6.73718 44.9497 8.04937C46.2625 9.36157 47 11.1413 47 12.997C47 14.8527 46.2625 16.6324 44.9497 17.9446C43.637 19.2568 41.8565 19.994 40 19.994C38.1435 19.994 36.363 19.2568 35.0503 17.9446C33.7375 16.6324 33 14.8527 33 12.997C33 11.1413 33.7375 9.36157 35.0503 8.04937C36.363 6.73718 38.1435 6 40 6ZM14 6C15.8565 6 17.637 6.73718 18.9497 8.04937C20.2625 9.36157 21 11.1413 21 12.997C21 14.8527 20.2625 16.6324 18.9497 17.9446C17.637 19.2568 15.8565 19.994 14 19.994C12.1435 19.994 10.363 19.2568 9.05025 17.9446C7.7375 16.6324 7 14.8527 7 12.997C7 11.1413 7.7375 9.36157 9.05025 8.04937C10.363 6.73718 12.1435 6 14 6ZM40 8.99871C38.9391 8.99871 37.9217 9.41996 37.1716 10.1698C36.4214 10.9196 36 11.9366 36 12.997C36 14.0574 36.4214 15.0744 37.1716 15.8242C37.9217 16.574 38.9391 16.9953 40 16.9953C41.0609 16.9953 42.0783 16.574 42.8284 15.8242C43.5786 15.0744 44 14.0574 44 12.997C44 11.9366 43.5786 10.9196 42.8284 10.1698C42.0783 9.41996 41.0609 8.99871 40 8.99871ZM14 8.99871C12.9391 8.99871 11.9217 9.41996 11.1716 10.1698C10.4214 10.9196 10 11.9366 10 12.997C10 14.0574 10.4214 15.0744 11.1716 15.8242C11.9217 16.574 12.9391 16.9953 14 16.9953C15.0609 16.9953 16.0783 16.574 16.8284 15.8242C17.5786 15.0744 18 14.0574 18 12.997C18 11.9366 17.5786 10.9196 16.8284 10.1698C16.0783 9.41996 15.0609 8.99871 14 8.99871Z" fill="#0FA958"/>
</svg>
