<svg width="54" height="54" viewBox="0 0 54 54" fill="none" xmlns="http://www.w3.org/2000/svg">
<path d="M43.75 18.9688V42.125C43.75 43.4179 43.1574 44.6579 42.1025 45.5721C41.0476 46.4864 39.6168 47 38.125 47H15.625C14.1332 47 12.7024 46.4864 11.6475 45.5721C10.5926 44.6579 10 43.4179 10 42.125V12.875C10 11.5821 10.5926 10.3421 11.6475 9.42785C12.7024 8.51361 14.1332 8 15.625 8H31.0938L43.75 18.9688ZM35.3125 18.9688C34.1936 18.9688 33.1206 18.5835 32.3294 17.8979C31.5382 17.2122 31.0938 16.2822 31.0938 15.3125V10.4375H15.625C14.8791 10.4375 14.1637 10.6943 13.6363 11.1514C13.1088 11.6085 12.8125 12.2285 12.8125 12.875V42.125C12.8125 42.7715 13.1088 43.3915 13.6363 43.8486C14.1637 44.3057 14.8791 44.5625 15.625 44.5625H38.125C38.8709 44.5625 39.5863 44.3057 40.1137 43.8486C40.6412 43.3915 40.9375 42.7715 40.9375 42.125V18.9688H35.3125Z" fill="#0FA958"/>
<path d="M28.6915 24.1996C28.8221 24.0861 28.9773 23.9961 29.1481 23.9346C29.319 23.8732 29.5021 23.8416 29.6871 23.8416C29.8721 23.8416 30.0552 23.8732 30.2261 23.9346C30.3969 23.9961 30.5521 24.0861 30.6827 24.1996L36.3077 29.0746C36.4387 29.1878 36.5426 29.3223 36.6135 29.4704C36.6844 29.6184 36.7208 29.7772 36.7208 29.9375C36.7208 30.0978 36.6844 30.2565 36.6135 30.4046C36.5426 30.5527 36.4387 30.6871 36.3077 30.8004L30.6827 35.6754C30.4187 35.9042 30.0605 36.0328 29.6871 36.0328C29.3137 36.0328 28.9555 35.9042 28.6915 35.6754C28.4274 35.4465 28.2791 35.1361 28.2791 34.8125C28.2791 34.4888 28.4274 34.1785 28.6915 33.9496L33.3236 29.9375L28.6915 25.9254C28.5605 25.8121 28.4566 25.6777 28.3857 25.5296C28.3148 25.3815 28.2783 25.2228 28.2783 25.0625C28.2783 24.9022 28.3148 24.7434 28.3857 24.5954C28.4566 24.4473 28.5605 24.3128 28.6915 24.1996ZM25.0577 24.1996C24.9271 24.0861 24.7719 23.9961 24.6011 23.9346C24.4302 23.8732 24.2471 23.8416 24.0621 23.8416C23.8771 23.8416 23.694 23.8732 23.5231 23.9346C23.3523 23.9961 23.1971 24.0861 23.0665 24.1996L17.4415 29.0746C17.3105 29.1878 17.2066 29.3223 17.1357 29.4704C17.0648 29.6184 17.0283 29.7772 17.0283 29.9375C17.0283 30.0978 17.0648 30.2565 17.1357 30.4046C17.2066 30.5527 17.3105 30.6871 17.4415 30.8004L23.0665 35.6754C23.3305 35.9042 23.6887 36.0328 24.0621 36.0328C24.4355 36.0328 24.7937 35.9042 25.0577 35.6754C25.3218 35.4465 25.4701 35.1361 25.4701 34.8125C25.4701 34.4888 25.3218 34.1785 25.0577 33.9496L20.4255 29.9375L25.0577 25.9254C25.1887 25.8121 25.2926 25.6777 25.3635 25.5296C25.4344 25.3815 25.4708 25.2228 25.4708 25.0625C25.4708 24.9022 25.4344 24.7434 25.3635 24.5954C25.2926 24.4473 25.1887 24.3128 25.0577 24.1996Z" fill="#0FA958"/>
</svg>
