<svg width="54" height="54" viewBox="0 0 54 54" fill="none" xmlns="http://www.w3.org/2000/svg">
<g clip-path="url(#clip0_784_2033)">
<path d="M38.1238 27.5001C38.1182 25.6699 37.922 23.8452 37.5386 22.0556H42.4386C42.1862 21.3092 41.8815 20.5814 41.5266 19.8779H36.9669C36.1097 17.0142 34.7802 14.3138 33.0333 11.8881C31.9172 11.4188 30.7534 11.072 29.5625 10.8537C31.9557 13.4252 33.7622 16.4856 34.8572 19.8234H27.5208V10.6223H25.4791V19.837H18.1427C19.2399 16.4931 21.0512 13.4278 23.4511 10.8537C22.2652 11.0684 21.1061 11.4106 19.9938 11.8745C18.24 14.29 16.9013 16.9811 16.033 19.837H11.4461C11.0848 20.5534 10.7755 21.2949 10.5205 22.0556H15.4613C15.0779 23.8452 14.8818 25.6699 14.8761 27.5001C14.8798 29.502 15.1081 31.4971 15.5566 33.4481H10.7383C11.0199 34.2111 11.3565 34.9526 11.7455 35.6668H16.1419C16.9752 38.2744 18.2105 40.7359 19.8033 42.9623C20.9439 43.4515 22.1354 43.8122 23.3558 44.0376C21.1343 41.6145 19.4259 38.7671 18.3333 35.6668H25.4927V44.2962H27.5344V35.6668H34.6666C33.5703 38.7684 31.8571 41.6159 29.6305 44.0376C30.8566 43.8044 32.0528 43.4346 33.1966 42.9351C34.7869 40.717 36.0221 38.2649 36.858 35.6668H41.2136C41.6008 34.9658 41.9374 34.238 42.2208 33.489H37.3888C37.8587 31.5268 38.1053 29.5177 38.1238 27.5001V27.5001ZM25.4791 33.4481H17.6663C16.7081 29.7022 16.6661 25.7805 17.5438 22.0148H25.4791V33.4481ZM35.3336 33.4481H27.5208V22.0556H35.4561C35.8471 23.8438 36.0388 25.6697 36.0277 27.5001C36.0388 29.5036 35.8057 31.501 35.3336 33.4481V33.4481Z" fill="#0FA958"/>
<path d="M26.5004 5.72217C22.1932 5.72217 17.9827 6.99941 14.4014 9.39239C10.82 11.7854 8.02871 15.1866 6.3804 19.166C4.73209 23.1453 4.30082 27.5241 5.14112 31.7486C5.98142 35.9731 8.05555 39.8535 11.1012 42.8992C14.1469 45.9448 18.0273 48.019 22.2518 48.8593C26.4763 49.6996 30.8551 49.2683 34.8344 47.62C38.8138 45.9717 42.215 43.1804 44.608 39.599C47.001 36.0177 48.2782 31.8072 48.2782 27.4999C48.2782 21.7241 45.9838 16.1849 41.8997 12.1007C37.8155 8.01661 32.2763 5.72217 26.5004 5.72217V5.72217ZM26.5004 46.5555C22.7316 46.5555 19.0474 45.4379 15.9137 43.3441C12.7801 41.2502 10.3377 38.2741 8.89541 34.7922C7.45314 31.3102 7.07577 27.4788 7.81104 23.7824C8.5463 20.086 10.3612 16.6906 13.0261 14.0256C15.6911 11.3607 19.0865 9.5458 22.7829 8.81054C26.4793 8.07527 30.3107 8.45264 33.7927 9.89491C37.2746 11.3372 40.2507 13.7796 42.3446 16.9132C44.4384 20.0469 45.556 23.7311 45.556 27.4999C45.556 32.5538 43.5484 37.4006 39.9748 40.9743C36.4011 44.5479 31.5543 46.5555 26.5004 46.5555Z" fill="#0FA958"/>
</g>
<defs>
<clipPath id="clip0_784_2033">
<rect width="49" height="49" fill="white" transform="translate(2 3)"/>
</clipPath>
</defs>
</svg>
