<svg width="266" height="94" viewBox="0 0 266 94" fill="none" xmlns="http://www.w3.org/2000/svg">
<rect width="266" height="94" rx="20" fill="white"/>
<path d="M86.5937 29.3149L82.5722 64.5305H78.0215L74 29.3149H78.1273L80.1381 56.6057V56.8157V57.1305C80.0852 57.2355 80.0852 57.3405 80.1381 57.4979C80.191 57.6554 80.2439 57.7079 80.2968 57.7079C80.3498 57.7079 80.4027 57.6554 80.4556 57.4979C80.5085 57.3405 80.5085 57.2355 80.4556 57.1305C80.4027 57.0781 80.4027 57.0781 80.4556 57.0256C80.4556 56.9731 80.4556 56.9206 80.4556 56.8681V56.6582L82.4664 29.3674L86.5937 29.3149Z" fill="black"/>
<path d="M98.8175 61.3291C99.082 61.2766 99.2937 61.1192 99.4524 60.9617C99.717 60.6993 99.8758 60.4894 99.9816 60.2794C100.087 60.0695 100.14 59.7021 100.14 59.1248L100.193 57.3404H103.844V58.9674C103.791 59.2298 103.791 59.4922 103.791 59.7021C103.739 59.9121 103.739 60.122 103.739 60.3844C103.739 60.6468 103.686 60.8567 103.633 61.0667C103.527 61.4865 103.368 61.9589 103.104 62.3787C102.839 62.7986 102.627 63.166 102.363 63.3759C102.151 63.5858 101.728 63.9007 101.146 64.2681C100.564 64.6355 99.7699 64.8454 98.8175 64.8454H95.6955C94.6901 64.8454 93.9493 64.6355 93.3672 64.2681C92.7852 63.9007 92.3619 63.5858 92.1502 63.3759C91.9385 63.166 91.674 62.7986 91.4094 62.3787C91.1448 61.9589 90.9861 61.4865 90.8802 61.0667C90.8273 60.8567 90.7744 60.6468 90.7215 60.3844C90.6686 60.122 90.6686 59.9121 90.6686 59.7021C90.6157 59.4922 90.6157 59.2298 90.6686 58.9674V34.8255C90.6157 34.5631 90.6157 34.3007 90.6686 34.0908C90.6686 33.8808 90.6686 33.6709 90.7215 33.461C90.7744 33.2511 90.8273 32.9887 90.8802 32.7787C90.9861 32.3589 91.1448 31.8865 91.4094 31.4667C91.674 31.0468 91.8856 30.6794 92.1502 30.4695C92.3619 30.2596 92.7852 29.9447 93.3672 29.5773C93.9493 29.2099 94.743 29 95.6955 29H98.6587C99.6641 29 100.405 29.2099 100.987 29.5773C101.569 29.9447 101.992 30.2596 102.204 30.4695C102.416 30.6794 102.68 31.0468 102.945 31.4667C103.209 31.8865 103.368 32.3589 103.474 32.7787C103.527 32.9887 103.58 33.2511 103.58 33.461C103.58 33.6709 103.58 33.9333 103.633 34.0908C103.633 34.3007 103.633 34.5631 103.686 34.8255V36.3475H100.034V32.4113H96.4892C96.2246 32.4638 95.9601 32.5163 95.6955 32.5688C95.4309 32.6213 95.2722 32.7262 95.1134 32.8837C94.8488 33.1461 94.6901 33.356 94.5843 33.566C94.4784 33.7759 94.4255 34.1433 94.4255 34.7206L94.3726 37.2397V56.7631L94.4255 59.2823C94.4784 59.8596 94.5314 60.227 94.5843 60.4369C94.6901 60.6468 94.8488 60.8567 95.1134 61.1192C95.2722 61.2766 95.5367 61.3816 95.8542 61.4865C96.1717 61.539 96.4892 61.5915 96.7538 61.5915H98.0767C98.3412 61.434 98.5529 61.434 98.8175 61.3291Z" fill="black"/>
<path d="M115.38 61.3291C115.644 61.2766 115.856 61.1192 116.015 60.9617C116.279 60.6993 116.438 60.4894 116.544 60.2794C116.65 60.0695 116.703 59.7021 116.703 59.1248L116.756 57.3404H120.407V58.9674C120.354 59.2298 120.354 59.4922 120.354 59.7021C120.354 59.9645 120.354 60.1745 120.354 60.4369C120.354 60.6993 120.301 60.9092 120.248 61.1192C120.142 61.539 119.983 62.0114 119.719 62.4312C119.454 62.8511 119.243 63.2184 118.978 63.4284C118.766 63.6383 118.343 63.9532 117.761 64.3206C117.179 64.688 116.385 64.8979 115.433 64.8979H112.311C111.305 64.8979 110.565 64.688 109.983 64.3206C109.4 63.9532 108.977 63.6383 108.765 63.4284C108.554 63.2184 108.289 62.8511 108.025 62.4312C107.76 62.0114 107.601 61.539 107.495 61.1192C107.443 60.9092 107.39 60.6993 107.337 60.4369C107.284 60.1745 107.284 59.9645 107.284 59.7546C107.231 59.5447 107.231 59.2823 107.284 59.0199V34.878C107.231 34.6156 107.231 34.3532 107.284 34.1433C107.284 33.9333 107.284 33.7234 107.337 33.5135C107.39 33.3036 107.443 33.0411 107.495 32.8312C107.601 32.4114 107.76 31.939 108.025 31.5192C108.289 31.0993 108.501 30.7319 108.765 30.522C108.977 30.3121 109.4 29.9972 109.983 29.6298C110.565 29.2624 111.358 29.0525 112.311 29.0525H115.274C116.279 29.0525 117.02 29.2624 117.602 29.6298C118.184 29.9972 118.608 30.3121 118.819 30.522C119.031 30.7319 119.295 31.0993 119.56 31.5192C119.825 31.939 119.983 32.4114 120.089 32.8312C120.142 33.0411 120.195 33.3036 120.195 33.5135C120.195 33.7234 120.195 33.9858 120.248 34.1433C120.248 34.3532 120.248 34.6156 120.301 34.878V36.3475H116.65V32.4114H113.104C112.84 32.4638 112.575 32.5163 112.311 32.5688C112.046 32.6213 111.887 32.7263 111.729 32.8837C111.464 33.1461 111.305 33.356 111.2 33.566C111.094 33.7759 111.041 34.1433 111.041 34.7206L110.988 37.2397V56.7631L111.041 59.2823C111.094 59.8596 111.147 60.227 111.2 60.4369C111.305 60.6468 111.464 60.8567 111.729 61.1192C111.887 61.2766 112.152 61.3816 112.469 61.4865C112.787 61.539 113.104 61.5915 113.369 61.5915H114.692C114.904 61.4341 115.168 61.4341 115.38 61.3291Z" fill="black"/>
<path d="M157.446 61.3291C157.711 61.2766 157.923 61.1192 158.081 60.9617C158.346 60.6993 158.505 60.4894 158.61 60.2794C158.716 60.0695 158.769 59.7021 158.769 59.1248L158.822 57.3404H162.473V58.9674C162.42 59.2298 162.42 59.4922 162.42 59.7021C162.367 59.9121 162.367 60.122 162.367 60.3844C162.367 60.6468 162.315 60.8567 162.262 61.0667C162.156 61.4865 161.997 61.9589 161.732 62.3787C161.468 62.7986 161.256 63.166 160.992 63.3759C160.78 63.5858 160.357 63.9007 159.775 64.2681C159.193 64.6355 158.399 64.8454 157.446 64.8454H154.324C153.319 64.8454 152.578 64.6355 151.996 64.2681C151.414 63.9007 150.991 63.5858 150.779 63.3759C150.567 63.166 150.303 62.7986 150.038 62.3787C149.774 61.9589 149.615 61.4865 149.509 61.0667C149.456 60.8567 149.403 60.6468 149.35 60.3844C149.297 60.122 149.297 59.9121 149.297 59.7021C149.245 59.4922 149.245 59.2298 149.297 58.9674V34.8255C149.245 34.5631 149.245 34.3007 149.297 34.0908C149.297 33.8808 149.297 33.6709 149.35 33.461C149.403 33.2511 149.456 32.9887 149.509 32.7787C149.615 32.3589 149.774 31.8865 150.038 31.4667C150.303 31.0468 150.515 30.6794 150.779 30.4695C150.991 30.2596 151.414 29.9447 151.996 29.5773C152.578 29.2099 153.372 29 154.324 29H157.288C158.293 29 159.034 29.2099 159.616 29.5773C160.198 29.9447 160.621 30.2596 160.833 30.4695C161.045 30.6794 161.309 31.0468 161.574 31.4667C161.838 31.8865 161.997 32.3589 162.103 32.7787C162.156 32.9887 162.156 33.1986 162.156 33.461C162.156 33.6709 162.156 33.9333 162.209 34.0908C162.209 34.3007 162.209 34.5631 162.262 34.8255V36.3475H158.61V32.4113H155.065C154.801 32.4638 154.536 32.5163 154.271 32.5688C154.007 32.6213 153.848 32.7262 153.689 32.8837C153.425 33.1461 153.266 33.356 153.16 33.566C153.054 33.7759 153.002 34.1433 153.002 34.7206L152.949 37.2397V56.7631L153.002 59.2823C153.054 59.8596 153.107 60.227 153.16 60.4369C153.266 60.6468 153.425 60.8567 153.689 61.1192C153.848 61.2766 154.113 61.3816 154.43 61.4865C154.748 61.539 155.065 61.5915 155.33 61.5915H156.653C156.917 61.434 157.182 61.434 157.446 61.3291Z" fill="black"/>
<path d="M165.543 29.3149H169.141V61.0667H177.025V64.5305H165.543V29.3149Z" fill="black"/>
<path d="M180.094 29.3149H191.312V32.7263H183.745V41.9107H188.666V45.322H183.745V61.1192H191.788V64.5305H180.094V29.3149Z" fill="black"/>
<path d="M127.815 31.7816C127.815 33.1461 126.704 34.2483 125.328 34.2483C123.952 34.2483 122.841 33.1461 122.841 31.7816C122.841 30.4171 123.952 29.3149 125.328 29.3149C126.704 29.3149 127.815 30.4171 127.815 31.7816Z" fill="black"/>
<path d="M125.328 36.6099C124.64 36.6099 124.005 36.4 123.476 36.0326V64.5305H127.127V36.0326C126.598 36.4 126.015 36.6099 125.328 36.6099Z" fill="black"/>
<path d="M140.144 41.8057C140.144 44.5873 137.392 44.4823 137.392 44.4823H134.64V32.7263H138.027C140.091 32.7263 140.091 34.6157 140.091 34.6157L140.144 41.8057ZM144.059 61.9064V50.0454C144.059 50.0454 143.742 46.2142 140.144 46.2142C140.144 46.2142 143.795 46.5291 143.795 43.5376V32.7788C143.795 32.7788 143.9 29.3149 139.403 29.3149C134.905 29.3149 130.989 29.3149 130.989 29.3149V64.5305H134.64V48.6809H138.874C138.874 48.6809 140.355 48.5235 140.355 51.0426V62.5887C140.355 62.5887 140.355 64.688 142.789 64.688H145.594V64.4781C145.647 64.4781 144.059 63.6383 144.059 61.9064Z" fill="black"/>
</svg>
