<svg width="266" height="94" viewBox="0 0 266 94" fill="none" xmlns="http://www.w3.org/2000/svg">
<rect width="266" height="94" rx="20" fill="white"/>
<g clip-path="url(#clip0_784_2197)">
<path d="M100.874 51.5884H103.334V44.9037L106.31 35.8873H103.914L102.239 41.6549H102.194L100.513 35.8873H97.8984L100.874 44.9037V51.5884ZM110.58 51.8145C111.089 51.849 111.6 51.7748 112.078 51.5966C112.557 51.4185 112.992 51.1405 113.356 50.7811C114.038 49.9705 114.382 48.9269 114.315 47.8682V39.614C114.383 38.5511 114.04 37.503 113.356 36.6882C112.991 36.3301 112.556 36.053 112.078 35.8749C111.599 35.6969 111.089 35.6219 110.58 35.6548C110.072 35.6216 109.562 35.6965 109.085 35.8746C108.608 36.0527 108.173 36.3299 107.81 36.6882C107.124 37.4991 106.777 38.5456 106.844 39.6075V47.8682C106.777 48.9282 107.123 49.9728 107.81 50.7811C108.173 51.1403 108.607 51.4183 109.084 51.5964C109.562 51.7746 110.072 51.8489 110.58 51.8145ZM109.292 39.4525C109.292 38.4256 109.717 37.9089 110.58 37.9089C111.443 37.9089 111.868 38.4256 111.868 39.4525V48.0232C111.868 49.0566 111.439 49.5733 110.58 49.5733C109.721 49.5733 109.292 49.0566 109.292 48.0232V39.4525ZM119.552 51.8145C120.053 51.8479 120.555 51.7742 121.026 51.5983C121.497 51.4224 121.925 51.1483 122.282 50.794C122.953 49.973 123.287 48.927 123.216 47.8682V35.8873H120.846V48.0426C120.886 48.4587 120.771 48.875 120.524 49.2116C120.404 49.335 120.26 49.4312 120.1 49.4936C119.94 49.556 119.768 49.5832 119.597 49.5733C119.421 49.5884 119.244 49.5637 119.079 49.5011C118.914 49.4385 118.765 49.3396 118.643 49.2116C118.394 48.8759 118.277 48.4595 118.315 48.0426V35.8873H115.88V47.8682C115.812 48.9278 116.149 49.9737 116.821 50.794C117.178 51.1486 117.606 51.423 118.077 51.5989C118.547 51.7749 119.05 51.8483 119.552 51.8145ZM127.422 44.8584H128.304C128.523 44.835 128.744 44.8611 128.952 44.9349C129.159 45.0086 129.347 45.1282 129.502 45.2847C129.777 45.7354 129.899 46.2634 129.85 46.7896V49.6573C129.829 50.0705 129.834 50.4846 129.863 50.8974C129.895 51.1425 129.956 51.383 130.043 51.6143H132.549C132.429 51.3552 132.353 51.078 132.323 50.794C132.288 50.4334 132.273 50.0712 132.278 49.7089V46.9252C132.308 46.1673 132.183 45.4112 131.911 44.7034C131.793 44.4345 131.616 44.1959 131.393 44.0057C131.17 43.8154 130.906 43.6786 130.623 43.6054V43.5602C131.696 43.1297 132.233 42.0984 132.233 40.4665V39.4977C132.313 38.5097 132.001 37.5298 131.363 36.7721C130.982 36.4479 130.54 36.2027 130.064 36.0508C129.587 35.899 129.086 35.8434 128.588 35.8873H124.962V51.5884H127.422V44.8584ZM127.422 38.1284H128.542C128.72 38.1143 128.898 38.1414 129.063 38.2075C129.229 38.2735 129.377 38.3769 129.496 38.5095C129.724 38.878 129.828 39.3107 129.792 39.7431V40.9574C129.84 41.4193 129.709 41.8821 129.425 42.2491C129.276 42.3848 129.101 42.4886 128.91 42.5541C128.72 42.6196 128.518 42.6455 128.317 42.6302H127.422V38.1284ZM137.179 51.8145C137.686 51.8496 138.194 51.7755 138.669 51.5972C139.145 51.419 139.577 51.1407 139.936 50.7811C140.621 49.9547 140.962 48.8953 140.889 47.823C140.91 46.9272 140.711 46.04 140.309 45.2395C139.748 44.3079 139.029 43.4817 138.184 42.7981C137.549 42.2784 136.988 41.6743 136.516 41.0026C136.207 40.5275 136.04 39.9742 136.033 39.4073C136.033 38.4062 136.445 37.9089 137.263 37.9089C137.433 37.8972 137.604 37.9243 137.762 37.988C137.921 38.0518 138.063 38.1506 138.178 38.277C138.418 38.6193 138.529 39.0356 138.493 39.4525V40.2598H140.818V39.614C140.894 38.563 140.579 37.5211 139.936 36.6882C139.591 36.3333 139.173 36.0581 138.712 35.8818C138.25 35.7056 137.756 35.6325 137.263 35.6677C136.763 35.6339 136.261 35.7075 135.791 35.8834C135.321 36.0594 134.894 36.3337 134.539 36.6882C133.868 37.494 133.531 38.5276 133.598 39.5752C133.584 40.4322 133.792 41.2782 134.204 42.0295C134.776 42.9441 135.494 43.758 136.329 44.4386C136.959 44.9636 137.51 45.577 137.965 46.26C138.267 46.788 138.421 47.3886 138.409 47.9974C138.446 48.4233 138.332 48.8486 138.087 49.1987C137.965 49.3272 137.817 49.4273 137.652 49.492C137.488 49.5567 137.311 49.5845 137.134 49.5733C136.275 49.5733 135.846 49.0631 135.846 48.0426V46.9704H133.553V47.8682C133.483 48.9238 133.809 49.9674 134.468 50.794C134.82 51.1498 135.244 51.4252 135.712 51.6014C136.18 51.7775 136.681 51.8502 137.179 51.8145ZM144.219 51.5884H146.679V38.1284H149.255V35.8873H141.649V38.1284H144.219V51.5884ZM153.905 51.8145C154.415 51.849 154.925 51.7748 155.404 51.5966C155.882 51.4185 156.318 51.1405 156.681 50.7811C157.364 49.9705 157.707 48.9269 157.641 47.8682V39.614C157.709 38.5511 157.365 37.503 156.681 36.6882C155.91 36.0213 154.926 35.6544 153.909 35.6544C152.891 35.6544 151.907 36.0213 151.136 36.6882C150.449 37.4991 150.103 38.5456 150.17 39.6075V47.8682C150.102 48.9282 150.449 49.9728 151.136 50.7811C151.498 51.1403 151.932 51.4183 152.41 51.5964C152.887 51.7746 153.397 51.8489 153.905 51.8145ZM152.617 39.4525C152.617 38.4256 153.042 37.9089 153.905 37.9089C154.768 37.9089 155.193 38.4256 155.193 39.4525V48.0232C155.193 49.0566 154.764 49.5733 153.905 49.5733C153.047 49.5733 152.617 49.0566 152.617 48.0232V39.4525ZM161.756 44.8584H162.606C162.825 44.835 163.046 44.8611 163.254 44.9349C163.461 45.0086 163.649 45.1282 163.804 45.2847C164.08 45.7354 164.202 46.2634 164.152 46.7896V49.6573C164.143 50.0626 164.158 50.468 164.197 50.8715C164.23 51.1166 164.29 51.3572 164.378 51.5884H166.877C166.761 51.3282 166.687 51.0514 166.658 50.7682C166.623 50.4076 166.608 50.0454 166.612 49.6831V46.9252C166.642 46.1673 166.518 45.4112 166.245 44.7034C166.128 44.4345 165.951 44.1959 165.727 44.0057C165.504 43.8154 165.241 43.6786 164.957 43.6054V43.5602C166.035 43.1297 166.572 42.0984 166.567 40.4665V39.4977C166.648 38.5097 166.335 37.5298 165.698 36.7721C165.317 36.4479 164.875 36.2027 164.398 36.0508C163.922 35.899 163.42 35.8434 162.922 35.8873H159.277V51.5884H161.737L161.756 44.8584ZM161.756 38.1284H162.877C163.053 38.1139 163.231 38.1407 163.395 38.2069C163.56 38.273 163.706 38.3766 163.824 38.5095C164.06 38.8749 164.167 39.3095 164.126 39.7431V40.9574C164.175 41.4193 164.043 41.8821 163.759 42.2491C163.61 42.3848 163.435 42.4886 163.245 42.5541C163.054 42.6196 162.852 42.6455 162.652 42.6302H161.756V38.1284ZM170.213 51.5884H172.673V44.9037L175.649 35.8873H173.253L171.578 41.6549H171.533L169.852 35.8873H167.237L170.213 44.9037V51.5884Z" fill="#FF0000"/>
<path d="M182.404 27H88.4307V60.2818H184.981V27H182.404ZM182.404 57.7048H90.9489V29.5835H182.404V57.7048Z" fill="#FF0000"/>
<path d="M175.075 59.8749C174.701 59.87 174.333 59.7794 174 59.6101V65.4229H82.5762V37.2952H89.7381C89.5626 36.8755 89.4972 36.4178 89.5479 35.9656C89.5986 35.5134 89.7639 35.0817 90.0279 34.7117H80V68H176.569V59.6036C176.091 59.7803 175.585 59.8721 175.075 59.8749Z" fill="#FF0000"/>
<path d="M91.4698 58.6607L82.0087 67.4381L80.1925 65.6167L89.6536 56.8393L91.4698 58.6607ZM90.2397 28.8278L81.867 36.5525L80.0508 34.7311L88.4235 27.0065L90.2397 28.8278Z" fill="#FF0000"/>
</g>
<defs>
<clipPath id="clip0_784_2197">
<rect width="105" height="41" fill="white" transform="translate(80 27)"/>
</clipPath>
</defs>
</svg>
